<svg width="500" height="500" viewBox="0 0 500 500" fill="none" xmlns="http://www.w3.org/2000/svg">
<g clip-path="url(#clip0_100_6)">
<path d="M221.57 316.53C204.33 321.68 187.04 313.9 175.65 295.87C170.98 288.48 169.6 282.67 170.25 273.13C171.24 258.72 180.46 245.15 193.93 238.25C208.14 230.98 216.7 236.18 214.52 250.75C213.89 254.92 213.04 256.19 207.31 261.47C200.01 268.2 198 271.39 198 276.2C198.01 282.61 204.99 289.99 211.06 290C212.47 290 216.7 288.15 220.46 285.88C241.53 273.17 252.81 271.92 272.2 280.16C280.8 283.81 286 283.83 293.06 280.25C304.14 274.63 307.37 264.71 302.67 250.71C300.02 242.82 297.56 238.62 287.07 224C259.34 185.39 241 149.32 241 133.4C241 126.71 246.87 120.01 252.75 120C256.44 120 262.51 126.49 267.05 135.28C279.99 160.37 288.79 175.16 308.31 204.59C329.15 236 333.26 245.14 333.26 260C333.26 288.32 310.44 311.38 282.54 311.25C275.64 311.22 273.08 310.67 264.98 307.5C250.46 301.8 250.25 301.82 237.46 308.94C231.43 312.3 224.28 315.71 221.57 316.53ZM297.32 364.07C293.88 365.38 292.93 365.25 289.31 363.05C282.67 359 282.41 352.28 288.56 343.34C293.54 336.12 297.01 333.57 313.5 325.04C331.71 315.61 341.92 308.78 351.22 299.8C363.91 287.53 369.76 278.16 374.51 262.5C378.67 248.76 380.96 242.7 382.81 240.47C389.35 232.61 399.85 233.23 403.06 241.66C406.99 251.99 397.4 282.9 384.2 302.46C378.2 311.36 364.25 325.55 356.5 330.64C353.2 332.81 346.45 336.65 341.5 339.17C314.67 352.83 306.29 357.41 303.2 360.13C301.32 361.78 298.67 363.55 297.32 364.07ZM310.02 429.75C306.08 432.42 304.61 432.5 300.11 430.28C295.39 427.96 291.5 419.56 292.42 413.66C294.39 400.99 303.08 387.51 315.27 378.23C321.33 373.61 327.66 370.26 345 362.46C351.88 359.37 359.08 356.11 361 355.21C369.23 351.39 376.71 346.33 383.37 340.07C396.67 327.58 400.91 326.22 407.43 332.37C410.47 335.24 411 336.38 410.99 340.12C410.98 346.94 405.1 355.33 394.48 363.7C383.78 372.12 375.95 376.51 359.4 383.36C352.3 386.3 342.97 390.44 338.66 392.56C326.66 398.45 320.69 406.03 315.04 422.5C313.86 425.95 312.3 428.2 310.02 429.75ZM193.75 409.12C186.4 411.57 182.35 412.29 174 412.6C162.46 413.04 160.33 412.51 157.09 408.39C155.43 406.27 154.98 404.53 155.2 401.09C155.59 395.19 158.54 393.16 171.11 390.1C195.64 384.15 226.4 362.42 242.03 340.01C246.83 333.13 251.89 329 255.52 329C256.74 329 259.71 330.75 262.12 332.89C266.37 336.66 266.5 336.95 266.45 342.64C266.38 352.07 261.13 360.92 247.53 374.57C230.99 391.17 213.1 402.66 193.75 409.12Z" fill="#7CC48A"/>
<path d="M412.5 492.58C405.81 493.77 380.66 493.97 259 493.82C178.98 493.73 107.2 493.36 99.5002 493.01C80.7802 492.15 72.5202 489.92 62.0002 482.91C51.1502 475.68 43.3302 465.59 38.8302 453L36.5002 446.5L36.2002 322.5C36.0102 241.67 36.2702 195.79 36.9402 190.73C39.5802 170.69 46.8802 161.89 91.0502 125.5C102.74 115.87 130.15 93.1 157.08 70.64C165.56 63.57 177.68 53.36 184 47.95C218.42 18.5 226.6 12.12 235.44 7.85C242.54 4.41 244.22 4 251.04 4C264.46 4 269.07 6.44 294.5 27C298.24 30.02 303.82 34.77 306.9 37.54C309.98 40.31 314.3 43.9 316.5 45.51C318.7 47.12 326.35 53.36 333.5 59.37C345.96 69.85 371.43 91.02 392.39 108.33C408.6 121.73 420.41 132.7 441.16 153.65C458.78 171.45 461 174.07 462.66 179C464.4 184.21 464.52 191.27 464.8 313.5C465.02 406.91 464.78 444.16 463.96 448.5C462.24 457.57 456.82 466.96 448.68 474.98C438.49 485 428.87 489.68 412.5 492.58ZM85.5902 454.99C90.3602 456.85 95.2702 456.91 252.5 456.93C407.09 456.95 414.68 456.87 418.51 455.14C423.63 452.81 428.62 447.13 429.98 442.08C430.71 439.38 430.95 400.22 430.77 317.32L430.5 196.5L427.58 190.56C423.08 181.39 414.23 173.01 379.5 145.03C369.05 136.61 358.48 127.96 356 125.81C350.68 121.19 343.28 115 317.58 93.68C307.08 84.97 294.67 74.57 290 70.57C285.33 66.56 278.12 60.59 274 57.31C269.88 54.03 265.83 50.52 265 49.51C264.17 48.49 261.74 46.39 259.6 44.83C254.84 41.38 249.92 41.14 245 44.14C241.2 46.44 227.29 57.81 206 75.99C198.57 82.33 190.25 89.32 187.5 91.5C184.75 93.69 176.65 100.47 169.5 106.56C162.35 112.66 153.72 119.86 150.32 122.57C146.91 125.28 135.44 134.86 124.82 143.85C114.19 152.85 100.36 164.55 94.0702 169.85C79.5602 182.11 77.6102 184.2 73.9802 191.41L71.0002 197.32V318.7C71.0002 436.18 71.0602 440.2 72.9102 443.79C75.5702 448.97 79.8502 452.75 85.5902 454.99ZM361.93 212.54C352.31 217.51 338 209.36 338 198.92C338 182.54 357.19 174.92 367.51 187.2C369.67 189.76 370 191.13 370 197.5C370 203.97 369.69 205.22 367.38 207.96C365.94 209.67 363.49 211.73 361.93 212.54Z" fill="#218685"/>
</g>
<defs>
<clipPath id="clip0_100_6">
<rect width="500" height="500" fill="white"/>
</clipPath>
</defs>
</svg>
